<?xml version="1.0" encoding="UTF-8"?>
<svg width="44px" height="56px" viewBox="0 0 44 56" version="1.1" xmlns="http://www.w3.org/2000/svg" xmlns:xlink="http://www.w3.org/1999/xlink">
    <!-- Generator: Sketch 45.1 (43504) - http://www.bohemiancoding.com/sketch -->
    <title>Work Pin light</title>
    <desc>Created with Sketch.</desc>
    <defs>
        <path d="M18,0 C7.73810526,0 0,8.596 0,20 C0,34.346 16.7324211,47.268 17.4448421,47.81 C17.6096842,47.938 17.8067368,48 18,48 C18.1932632,48 18.3884211,47.938 18.5551579,47.81 C19.2656842,47.268 36,34.346 36,20 C36,8.596 28.2618947,0 18,0" id="path-1"></path>
        <filter x="-19.4%" y="-12.5%" width="138.9%" height="129.2%" filterUnits="objectBoundingBox" id="filter-2">
            <feMorphology radius="0.5" operator="dilate" in="SourceAlpha" result="shadowSpreadOuter1"></feMorphology>
            <feOffset dx="0" dy="1" in="shadowSpreadOuter1" result="shadowOffsetOuter1"></feOffset>
            <feGaussianBlur stdDeviation="2" in="shadowOffsetOuter1" result="shadowBlurOuter1"></feGaussianBlur>
            <feComposite in="shadowBlurOuter1" in2="SourceAlpha" operator="out" result="shadowBlurOuter1"></feComposite>
            <feColorMatrix values="0 0 0 0 0.149019608   0 0 0 0 0.196078431   0 0 0 0 0.219607843  0 0 0 0.5 0" type="matrix" in="shadowBlurOuter1"></feColorMatrix>
        </filter>
    </defs>
    <g id="Tranist-Routes" stroke="none" stroke-width="1" fill="none" fill-rule="evenodd">
        <g id="Work-Pin-light">
            <g id="Group-8" transform="translate(4.000000, 4.000000)">
                <g id="Fill-811-Copy-5">
                    <use fill="black" fill-opacity="1" filter="url(#filter-2)" xlink:href="#path-1"></use>
                    <use stroke="#007681" stroke-width="1" fill="#00ABBA" fill-rule="evenodd" xlink:href="#path-1"></use>
                </g>
                <g id="Group-769" transform="translate(9.000000, 10.000000)" fill="#FFFFFF">
                    <path d="M6.75,2.25 C6.75,1.83675 7.086,1.5 7.5,1.5 L10.5,1.5 C10.914,1.5 11.25,1.83675 11.25,2.25 L11.25,3.0045 L6.75,3.0045 L6.75,2.25 Z M15.375,3.0045 L12.75,3.0045 L12.75,2.25 C12.75,1.0095 11.7405,0 10.5,0 L7.5,0 C6.2595,0 5.25,1.0095 5.25,2.25 L5.25,3.0045 L2.625,3.0045 C1.1775,3.0045 0,4.18275 0,5.6295 L0,13.1295 C0,14.577 1.1775,15.7545 2.625,15.75 L15.375,15.75 C16.8225,15.7545 18,14.577 18,13.1295 L18,5.6295 C18,4.18275 16.8225,3.0045 15.375,3.0045 L15.375,3.0045 Z" id="Fill-2460"></path>
                </g>
            </g>
        </g>
    </g>
</svg>