<?xml version="1.0" encoding="UTF-8"?>
<svg width="44px" height="56px" viewBox="0 0 44 56" version="1.1" xmlns="http://www.w3.org/2000/svg" xmlns:xlink="http://www.w3.org/1999/xlink">
    <!-- Generator: Sketch 45.1 (43504) - http://www.bohemiancoding.com/sketch -->
    <title>Home Pin light</title>
    <desc>Created with Sketch.</desc>
    <defs>
        <path d="M18,0 C7.73810526,0 0,8.596 0,20 C0,34.346 16.7324211,47.268 17.4448421,47.81 C17.6096842,47.938 17.8067368,48 18,48 C18.1932632,48 18.3884211,47.938 18.5551579,47.81 C19.2656842,47.268 36,34.346 36,20 C36,8.596 28.2618947,0 18,0" id="path-1"></path>
        <filter x="-19.4%" y="-12.5%" width="138.9%" height="129.2%" filterUnits="objectBoundingBox" id="filter-2">
            <feMorphology radius="0.5" operator="dilate" in="SourceAlpha" result="shadowSpreadOuter1"></feMorphology>
            <feOffset dx="0" dy="1" in="shadowSpreadOuter1" result="shadowOffsetOuter1"></feOffset>
            <feGaussianBlur stdDeviation="2" in="shadowOffsetOuter1" result="shadowBlurOuter1"></feGaussianBlur>
            <feComposite in="shadowBlurOuter1" in2="SourceAlpha" operator="out" result="shadowBlurOuter1"></feComposite>
            <feColorMatrix values="0 0 0 0 0.149019608   0 0 0 0 0.196078431   0 0 0 0 0.219607843  0 0 0 0.5 0" type="matrix" in="shadowBlurOuter1"></feColorMatrix>
        </filter>
    </defs>
    <g id="Tranist-Routes" stroke="none" stroke-width="1" fill="none" fill-rule="evenodd">
        <g id="Home-Pin-light">
            <g id="Group-5" transform="translate(4.000000, 4.000000)">
                <g id="Fill-811-Copy-3">
                    <use fill="black" fill-opacity="1" filter="url(#filter-2)" xlink:href="#path-1"></use>
                    <use stroke="#007681" stroke-width="1" fill="#00ABBA" fill-rule="evenodd" xlink:href="#path-1"></use>
                </g>
                <g id="Group-215" transform="translate(9.000000, 10.000000)" fill="#FFFFFF">
                    <path d="M15.48,1.8 C15.48,1.44 15.12,1.44 15.12,1.44 L13.32,1.44 C13.32,1.44 12.96,1.44 12.96,1.8 L12.96,2.52 L15.48,5.04 L15.48,1.8 Z" id="Fill-5380"></path>
                    <path d="M17.894808,8.385336 L9.614808,0.105336 C9.473688,-0.035064 9.246168,-0.035064 9.105768,0.105336 L0.825768,8.385336 C0.598968,8.612856 0.759528,9.000216 1.079928,9.000216 L2.879928,9.000216 L2.879928,16.200216 C2.879928,16.398936 3.041208,16.560216 3.239928,16.560216 L15.479928,16.560216 C15.678648,16.560216 15.839928,16.398936 15.839928,16.200216 L15.839928,9.000216 L17.639928,9.000216 C17.960328,9.000216 18.120888,8.612856 17.894808,8.385336" id="Fill-5381"></path>
                </g>
            </g>
        </g>
    </g>
</svg>